<?xml version="1.0" standalone="no"?>
<!DOCTYPE svg PUBLIC "-//W3C//DTD SVG 20010904//EN"
 "http://www.w3.org/TR/2001/REC-SVG-20010904/DTD/svg10.dtd">
<svg version="1.0" xmlns="http://www.w3.org/2000/svg"
 width="120.000000pt" height="120.000000pt" viewBox="0 0 120.000000 120.000000"
 preserveAspectRatio="xMidYMid meet">
<metadata>
Created by potrace 1.11, written by Peter Selinger 2001-2013
</metadata>
<g transform="translate(0.000000,120.000000) scale(0.100000,-0.100000)"
fill="#000000" stroke="none">
<path d="M568 1135 c-2 -2 -19 -7 -38 -10 -54 -9 -160 -64 -200 -104 -117
-116 -164 -300 -120 -470 17 -67 58 -153 80 -166 6 -3 10 -13 10 -21 0 -36
-103 0 -178 62 -63 52 -90 54 -108 8 -11 -26 -10 -36 5 -70 10 -21 32 -53 49
-71 29 -30 30 -34 17 -59 -9 -19 -11 -33 -4 -45 5 -10 9 -27 9 -38 0 -11 9
-22 20 -26 11 -3 20 -13 20 -21 0 -13 47 -30 66 -24 4 1 10 -4 14 -10 5 -7 39
-13 88 -15 65 -2 87 2 109 16 15 11 42 19 58 19 31 1 65 20 65 38 0 5 15 33
34 60 l34 50 31 -48 c18 -27 32 -53 32 -57 1 -21 35 -43 67 -43 18 0 46 -8 60
-19 36 -24 165 -23 204 3 19 12 28 14 33 6 10 -16 85 66 86 93 0 12 2 30 4 40
2 9 -3 23 -10 31 -12 11 -9 18 16 42 34 33 68 100 65 131 -3 28 -24 53 -46 53
-9 0 -37 -17 -61 -39 -24 -21 -58 -45 -75 -54 -35 -18 -114 -34 -114 -23 0 4
13 26 28 49 45 67 71 134 76 197 1 14 5 30 8 36 4 5 3 16 -2 24 -4 7 -4 23 0
36 5 12 7 24 4 27 -3 2 -6 18 -9 36 -23 184 -183 353 -348 367 -29 3 -57 7
-64 9 -6 2 -13 2 -15 0z"/>
</g>
</svg>
